# WaveFront *.obj file (generated by Autodesk ATF)

mtllib fake_cup v1.mtl

g Body1

v -4.286250 -0.000000 10.953750
v -4.221132 0.744300 10.953750
v -4.027757 1.465984 10.953750
v -3.712001 2.143125 10.953750
v -3.283458 2.755148 10.953750
v -2.755148 3.283458 10.953750
v -2.143125 3.712001 10.953750
v -1.465984 4.027757 10.953750
v -0.744300 4.221132 10.953750
v 0.000000 4.286250 10.953750
v 0.744300 4.221132 10.953750
v 1.465984 4.027757 10.953750
v 2.143125 3.712001 10.953750
v 2.755148 3.283458 10.953750
v 3.283458 2.755148 10.953750
v 3.712001 2.143125 10.953750
v 4.027757 1.465984 10.953750
v 4.221132 0.744300 10.953750
v 4.286250 0.000000 10.953750
v 4.221132 -0.744300 10.953750
v 4.027757 -1.465984 10.953750
v 3.712001 -2.143125 10.953750
v 3.283458 -2.755148 10.953750
v 2.755148 -3.283458 10.953750
v 2.143125 -3.712001 10.953750
v 1.465984 -4.027757 10.953750
v 0.744300 -4.221132 10.953750
v 0.000000 -4.286250 10.953750
v -0.744300 -4.221132 10.953750
v -1.465984 -4.027757 10.953750
v -2.143125 -3.712001 10.953750
v -2.755148 -3.283458 10.953750
v -3.283458 -2.755148 10.953750
v -3.712001 -2.143125 10.953750
v -4.027757 -1.465984 10.953750
v -4.221132 -0.744300 10.953750
v -4.286250 -0.000000 0.000000
v -4.221132 -0.744300 0.000000
v -4.027757 -1.465984 0.000000
v -3.712001 -2.143125 0.000000
v -3.283458 -2.755148 0.000000
v -2.755148 -3.283458 0.000000
v -2.143125 -3.712001 0.000000
v -1.465984 -4.027757 0.000000
v -0.744300 -4.221132 0.000000
v 0.000000 -4.286250 0.000000
v 0.744300 -4.221132 0.000000
v 1.465984 -4.027757 0.000000
v 2.143125 -3.712001 0.000000
v 2.755148 -3.283458 0.000000
v 3.283458 -2.755148 0.000000
v 3.712001 -2.143125 0.000000
v 4.027757 -1.465984 0.000000
v 4.221132 -0.744300 0.000000
v 4.286250 0.000000 0.000000
v 4.221132 0.744300 0.000000
v 4.027757 1.465984 0.000000
v 3.712001 2.143125 0.000000
v 3.283458 2.755148 0.000000
v 2.755148 3.283458 0.000000
v 2.143125 3.712001 0.000000
v 1.465984 4.027757 0.000000
v 0.744300 4.221132 0.000000
v 0.000000 4.286250 0.000000
v -0.744300 4.221132 0.000000
v -1.465984 4.027757 0.000000
v -2.143125 3.712001 0.000000
v -2.755148 3.283458 0.000000
v -3.283458 2.755148 0.000000
v -3.712001 2.143125 0.000000
v -4.027757 1.465984 0.000000
v -4.221132 0.744300 0.000000
vt -10.953750 12.717560 0.000000
vt -0.000000 12.717560 0.000000
vt -10.953750 13.465652 0.000000
vt -0.000000 13.465652 0.000000
vt -10.953750 -13.465652 0.000000
vt -0.000000 -13.465652 0.000000
vt -10.953750 -12.717560 0.000000
vt -0.000000 -12.717560 0.000000
vt -10.953750 -11.969468 0.000000
vt -0.000000 -11.969468 0.000000
vt -10.953750 -11.221376 0.000000
vt -0.000000 -11.221376 0.000000
vt -10.953750 -10.473285 0.000000
vt -0.000000 -10.473285 0.000000
vt -10.953750 -9.725193 0.000000
vt -0.000000 -9.725193 0.000000
vt -10.953750 -8.977101 0.000000
vt -0.000000 -8.977101 0.000000
vt -10.953750 -8.229009 0.000000
vt -0.000000 -8.229009 0.000000
vt -10.953750 -7.480918 0.000000
vt -0.000000 -7.480918 0.000000
vt -10.953750 -6.732826 0.000000
vt -0.000000 -6.732826 0.000000
vt -10.953750 -5.984734 0.000000
vt -0.000000 -5.984734 0.000000
vt -10.953750 -5.236642 0.000000
vt -0.000000 -5.236642 0.000000
vt -10.953750 -4.488551 0.000000
vt -0.000000 -4.488551 0.000000
vt -10.953750 -3.740459 0.000000
vt -0.000000 -3.740459 0.000000
vt -10.953750 -2.992367 0.000000
vt -0.000000 -2.992367 0.000000
vt -10.953750 -2.244275 0.000000
vt -0.000000 -2.244275 0.000000
vt -10.953750 -1.496184 0.000000
vt -0.000000 -1.496184 0.000000
vt -10.953750 -0.748092 0.000000
vt -0.000000 -0.748092 0.000000
vt -10.953750 0.000000 0.000000
vt -0.000000 0.000000 0.000000
vt -10.953750 0.748092 0.000000
vt -0.000000 0.748092 0.000000
vt -10.953750 1.496184 0.000000
vt -0.000000 1.496184 0.000000
vt -10.953750 2.244275 0.000000
vt -0.000000 2.244275 0.000000
vt -10.953750 2.992367 0.000000
vt -0.000000 2.992367 0.000000
vt -10.953750 3.740459 0.000000
vt -0.000000 3.740459 0.000000
vt -10.953750 4.488551 0.000000
vt -0.000000 4.488551 0.000000
vt -10.953750 5.236642 0.000000
vt -0.000000 5.236642 0.000000
vt -10.953750 5.984734 0.000000
vt -0.000000 5.984734 0.000000
vt -10.953750 6.732826 0.000000
vt -0.000000 6.732826 0.000000
vt -10.953750 7.480918 0.000000
vt -0.000000 7.480918 0.000000
vt -10.953750 8.229009 0.000000
vt -0.000000 8.229009 0.000000
vt -10.953750 8.977101 0.000000
vt -0.000000 8.977101 0.000000
vt -10.953750 9.725193 0.000000
vt -0.000000 9.725193 0.000000
vt -10.953750 10.473285 0.000000
vt -0.000000 10.473285 0.000000
vt -10.953750 11.221376 0.000000
vt -0.000000 11.221376 0.000000
vt -10.953750 11.969468 0.000000
vt -0.000000 11.969468 0.000000
vt -4.221132 -0.744300 0.000000
vt 4.221132 -0.744300 0.000000
vt -4.286250 -0.000000 0.000000
vt 4.286250 0.000000 0.000000
vt -4.221132 0.744300 0.000000
vt 4.221132 0.744300 0.000000
vt -4.027757 1.465984 0.000000
vt 4.027757 1.465984 0.000000
vt -3.712001 2.143125 0.000000
vt 3.712001 2.143125 0.000000
vt -3.283458 2.755148 0.000000
vt 3.283458 2.755148 0.000000
vt -2.755148 3.283458 0.000000
vt 2.755148 3.283458 0.000000
vt -2.143125 3.712001 0.000000
vt 2.143125 3.712001 0.000000
vt -1.465984 4.027757 0.000000
vt 1.465984 4.027757 0.000000
vt -0.744300 4.221132 0.000000
vt 0.744300 4.221132 0.000000
vt 0.000000 4.286250 0.000000
vt 4.027757 -1.465984 0.000000
vt -4.027757 -1.465984 0.000000
vt 3.712001 -2.143125 0.000000
vt -3.712001 -2.143125 0.000000
vt 3.283458 -2.755148 0.000000
vt -3.283458 -2.755148 0.000000
vt 2.755148 -3.283458 0.000000
vt -2.755148 -3.283458 0.000000
vt 2.143125 -3.712001 0.000000
vt -2.143125 -3.712001 0.000000
vt 1.465984 -4.027757 0.000000
vt -1.465984 -4.027757 0.000000
vt 0.744300 -4.221132 0.000000
vt -0.744300 -4.221132 0.000000
vt 0.000000 -4.286250 0.000000
vt 4.221132 0.744300 0.000000
vt -4.221132 0.744300 0.000000
vt 4.286250 -0.000000 0.000000
vt -4.286250 0.000000 0.000000
vt 4.221132 -0.744300 0.000000
vt -4.221132 -0.744300 0.000000
vt 4.027757 -1.465984 0.000000
vt -4.027757 -1.465984 0.000000
vt 3.712001 -2.143125 0.000000
vt -3.712001 -2.143125 0.000000
vt 3.283458 -2.755148 0.000000
vt -3.283458 -2.755148 0.000000
vt 2.755148 -3.283458 0.000000
vt -2.755148 -3.283458 0.000000
vt 2.143125 -3.712001 0.000000
vt -2.143125 -3.712001 0.000000
vt 1.465984 -4.027757 0.000000
vt -1.465984 -4.027757 0.000000
vt 0.744300 -4.221132 0.000000
vt -0.744300 -4.221132 0.000000
vt -0.000000 -4.286250 0.000000
vt -4.027757 1.465984 0.000000
vt 4.027757 1.465984 0.000000
vt -3.712001 2.143125 0.000000
vt 3.712001 2.143125 0.000000
vt -3.283458 2.755148 0.000000
vt 3.283458 2.755148 0.000000
vt -2.755148 3.283458 0.000000
vt 2.755148 3.283458 0.000000
vt -2.143125 3.712001 0.000000
vt 2.143125 3.712001 0.000000
vt -1.465984 4.027757 0.000000
vt 1.465984 4.027757 0.000000
vt -0.744300 4.221132 0.000000
vt 0.744300 4.221132 0.000000
vt -0.000000 4.286250 0.000000
vn -0.984808 0.173648 -0.000000
vn -0.984808 0.173648 -0.000000
vn -1.000000 0.000000 -0.000000
vn -1.000000 0.000000 -0.000000
vn -0.984808 -0.173648 0.000000
vn -0.984808 -0.173648 0.000000
vn -0.939693 -0.342020 0.000000
vn -0.939693 -0.342020 0.000000
vn -0.866025 -0.500000 0.000000
vn -0.866025 -0.500000 0.000000
vn -0.766044 -0.642788 0.000000
vn -0.766044 -0.642788 0.000000
vn -0.642788 -0.766044 0.000000
vn -0.642788 -0.766044 0.000000
vn -0.500000 -0.866025 0.000000
vn -0.500000 -0.866025 0.000000
vn -0.342020 -0.939693 0.000000
vn -0.342020 -0.939693 0.000000
vn -0.173648 -0.984808 0.000000
vn -0.173648 -0.984808 0.000000
vn 0.000000 -1.000000 -0.000000
vn 0.000000 -1.000000 -0.000000
vn 0.173648 -0.984808 -0.000000
vn 0.173648 -0.984808 -0.000000
vn 0.342020 -0.939693 -0.000000
vn 0.342020 -0.939693 -0.000000
vn 0.500000 -0.866025 -0.000000
vn 0.500000 -0.866025 -0.000000
vn 0.642788 -0.766044 -0.000000
vn 0.642788 -0.766044 -0.000000
vn 0.766044 -0.642788 -0.000000
vn 0.766044 -0.642788 -0.000000
vn 0.866025 -0.500000 -0.000000
vn 0.866025 -0.500000 -0.000000
vn 0.939693 -0.342020 -0.000000
vn 0.939693 -0.342020 -0.000000
vn 0.984808 -0.173648 -0.000000
vn 0.984808 -0.173648 -0.000000
vn 1.000000 -0.000000 -0.000000
vn 1.000000 -0.000000 -0.000000
vn 0.984808 0.173648 -0.000000
vn 0.984808 0.173648 -0.000000
vn 0.939693 0.342020 -0.000000
vn 0.939693 0.342020 -0.000000
vn 0.866025 0.500000 -0.000000
vn 0.866025 0.500000 -0.000000
vn 0.766044 0.642788 -0.000000
vn 0.766044 0.642788 -0.000000
vn 0.642788 0.766044 -0.000000
vn 0.642788 0.766044 -0.000000
vn 0.500000 0.866025 -0.000000
vn 0.500000 0.866025 -0.000000
vn 0.342020 0.939693 -0.000000
vn 0.342020 0.939693 -0.000000
vn 0.173648 0.984808 -0.000000
vn 0.173648 0.984808 -0.000000
vn 0.000000 1.000000 -0.000000
vn 0.000000 1.000000 -0.000000
vn -0.173648 0.984808 -0.000000
vn -0.173648 0.984808 -0.000000
vn -0.342020 0.939693 -0.000000
vn -0.342020 0.939693 -0.000000
vn -0.500000 0.866025 -0.000000
vn -0.500000 0.866025 -0.000000
vn -0.642788 0.766044 -0.000000
vn -0.642788 0.766044 -0.000000
vn -0.766044 0.642788 -0.000000
vn -0.766044 0.642788 -0.000000
vn -0.866025 0.500000 -0.000000
vn -0.866025 0.500000 -0.000000
vn -0.939693 0.342020 -0.000000
vn -0.939693 0.342020 -0.000000
vn 0.000000 0.000000 1.000000
vn 0.000000 0.000000 1.000000
vn 0.000000 0.000000 1.000000
vn 0.000000 0.000000 1.000000
vn 0.000000 0.000000 1.000000
vn 0.000000 0.000000 1.000000
vn 0.000000 0.000000 1.000000
vn 0.000000 0.000000 1.000000
vn 0.000000 0.000000 1.000000
vn 0.000000 0.000000 1.000000
vn 0.000000 0.000000 1.000000
vn 0.000000 0.000000 1.000000
vn 0.000000 0.000000 1.000000
vn 0.000000 0.000000 1.000000
vn 0.000000 0.000000 1.000000
vn 0.000000 0.000000 1.000000
vn 0.000000 0.000000 1.000000
vn 0.000000 0.000000 1.000000
vn 0.000000 0.000000 1.000000
vn 0.000000 0.000000 1.000000
vn 0.000000 0.000000 1.000000
vn 0.000000 0.000000 1.000000
vn 0.000000 0.000000 1.000000
vn 0.000000 0.000000 1.000000
vn 0.000000 0.000000 1.000000
vn 0.000000 0.000000 1.000000
vn 0.000000 0.000000 1.000000
vn 0.000000 0.000000 1.000000
vn 0.000000 0.000000 1.000000
vn 0.000000 0.000000 1.000000
vn 0.000000 0.000000 1.000000
vn 0.000000 0.000000 1.000000
vn 0.000000 0.000000 1.000000
vn 0.000000 0.000000 1.000000
vn 0.000000 0.000000 1.000000
vn 0.000000 0.000000 1.000000
vn -0.000000 -0.000000 -1.000000
vn -0.000000 -0.000000 -1.000000
vn -0.000000 -0.000000 -1.000000
vn -0.000000 -0.000000 -1.000000
vn -0.000000 -0.000000 -1.000000
vn -0.000000 -0.000000 -1.000000
vn -0.000000 -0.000000 -1.000000
vn -0.000000 -0.000000 -1.000000
vn -0.000000 -0.000000 -1.000000
vn -0.000000 -0.000000 -1.000000
vn -0.000000 -0.000000 -1.000000
vn -0.000000 -0.000000 -1.000000
vn -0.000000 -0.000000 -1.000000
vn -0.000000 -0.000000 -1.000000
vn -0.000000 -0.000000 -1.000000
vn -0.000000 -0.000000 -1.000000
vn -0.000000 -0.000000 -1.000000
vn -0.000000 -0.000000 -1.000000
vn -0.000000 -0.000000 -1.000000
vn -0.000000 -0.000000 -1.000000
vn -0.000000 -0.000000 -1.000000
vn -0.000000 -0.000000 -1.000000
vn -0.000000 -0.000000 -1.000000
vn -0.000000 -0.000000 -1.000000
vn -0.000000 -0.000000 -1.000000
vn -0.000000 -0.000000 -1.000000
vn -0.000000 -0.000000 -1.000000
vn -0.000000 -0.000000 -1.000000
vn -0.000000 -0.000000 -1.000000
vn -0.000000 -0.000000 -1.000000
vn -0.000000 -0.000000 -1.000000
vn -0.000000 -0.000000 -1.000000
vn -0.000000 -0.000000 -1.000000
vn -0.000000 -0.000000 -1.000000
vn -0.000000 -0.000000 -1.000000
vn -0.000000 -0.000000 -1.000000
usemtl Steel_-_Satin
f 2/1/1 72/2/2 1/3/3
f 1/3/3 72/2/2 37/4/4
f 1/5/3 37/6/4 36/7/5
f 36/7/5 37/6/4 38/8/6
f 36/7/5 38/8/6 35/9/7
f 35/9/7 38/8/6 39/10/8
f 35/9/7 39/10/8 34/11/9
f 34/11/9 39/10/8 40/12/10
f 34/11/9 40/12/10 33/13/11
f 33/13/11 40/12/10 41/14/12
f 33/13/11 41/14/12 32/15/13
f 32/15/13 41/14/12 42/16/14
f 32/15/13 42/16/14 31/17/15
f 31/17/15 42/16/14 43/18/16
f 31/17/15 43/18/16 30/19/17
f 30/19/17 43/18/16 44/20/18
f 30/19/17 44/20/18 29/21/19
f 29/21/19 44/20/18 45/22/20
f 29/21/19 45/22/20 28/23/21
f 28/23/21 45/22/20 46/24/22
f 28/23/21 46/24/22 27/25/23
f 27/25/23 46/24/22 47/26/24
f 27/25/23 47/26/24 26/27/25
f 26/27/25 47/26/24 48/28/26
f 26/27/25 48/28/26 25/29/27
f 25/29/27 48/28/26 49/30/28
f 25/29/27 49/30/28 24/31/29
f 24/31/29 49/30/28 50/32/30
f 24/31/29 50/32/30 23/33/31
f 23/33/31 50/32/30 51/34/32
f 23/33/31 51/34/32 22/35/33
f 22/35/33 51/34/32 52/36/34
f 22/35/33 52/36/34 21/37/35
f 21/37/35 52/36/34 53/38/36
f 21/37/35 53/38/36 20/39/37
f 20/39/37 53/38/36 54/40/38
f 20/39/37 54/40/38 19/41/39
f 19/41/39 54/40/38 55/42/40
f 19/41/39 55/42/40 18/43/41
f 18/43/41 55/42/40 56/44/42
f 18/43/41 56/44/42 17/45/43
f 17/45/43 56/44/42 57/46/44
f 17/45/43 57/46/44 16/47/45
f 16/47/45 57/46/44 58/48/46
f 16/47/45 58/48/46 15/49/47
f 15/49/47 58/48/46 59/50/48
f 15/49/47 59/50/48 14/51/49
f 14/51/49 59/50/48 60/52/50
f 14/51/49 60/52/50 13/53/51
f 13/53/51 60/52/50 61/54/52
f 13/53/51 61/54/52 12/55/53
f 12/55/53 61/54/52 62/56/54
f 12/55/53 62/56/54 11/57/55
f 11/57/55 62/56/54 63/58/56
f 11/57/55 63/58/56 10/59/57
f 10/59/57 63/58/56 64/60/58
f 10/59/57 64/60/58 9/61/59
f 9/61/59 64/60/58 65/62/60
f 9/61/59 65/62/60 8/63/61
f 8/63/61 65/62/60 66/64/62
f 8/63/61 66/64/62 7/65/63
f 7/65/63 66/64/62 67/66/64
f 7/65/63 67/66/64 6/67/65
f 6/67/65 67/66/64 68/68/66
f 6/67/65 68/68/66 5/69/67
f 5/69/67 68/68/66 69/70/68
f 5/69/67 69/70/68 4/71/69
f 4/71/69 69/70/68 70/72/70
f 4/71/69 70/72/70 3/73/71
f 3/73/71 70/72/70 71/74/72
f 3/73/71 71/74/72 2/1/1
f 2/1/1 71/74/72 72/2/2
f 36/75/73 20/76/74 1/77/75
f 1/77/75 20/76/74 19/78/76
f 1/77/75 19/78/76 2/79/77
f 2/79/77 19/78/76 18/80/78
f 2/79/77 18/80/78 3/81/79
f 3/81/79 18/80/78 17/82/80
f 3/81/79 17/82/80 4/83/81
f 4/83/81 17/82/80 16/84/82
f 4/83/81 16/84/82 5/85/83
f 5/85/83 16/84/82 15/86/84
f 5/85/83 15/86/84 6/87/85
f 6/87/85 15/86/84 14/88/86
f 6/87/85 14/88/86 7/89/87
f 7/89/87 14/88/86 13/90/88
f 7/89/87 13/90/88 8/91/89
f 8/91/89 13/90/88 12/92/90
f 8/91/89 12/92/90 9/93/91
f 9/93/91 12/92/90 11/94/92
f 9/93/91 11/94/92 10/95/93
f 20/76/74 36/75/73 21/96/94
f 21/96/94 36/75/73 35/97/95
f 21/96/94 35/97/95 22/98/96
f 22/98/96 35/97/95 34/99/97
f 22/98/96 34/99/97 23/100/98
f 23/100/98 34/99/97 33/101/99
f 23/100/98 33/101/99 24/102/100
f 24/102/100 33/101/99 32/103/101
f 24/102/100 32/103/101 25/104/102
f 25/104/102 32/103/101 31/105/103
f 25/104/102 31/105/103 26/106/104
f 26/106/104 31/105/103 30/107/105
f 26/106/104 30/107/105 27/108/106
f 27/108/106 30/107/105 29/109/107
f 27/108/106 29/109/107 28/110/108
f 72/111/109 56/112/110 37/113/111
f 37/113/111 56/112/110 55/114/112
f 37/113/111 55/114/112 38/115/113
f 38/115/113 55/114/112 54/116/114
f 38/115/113 54/116/114 39/117/115
f 39/117/115 54/116/114 53/118/116
f 39/117/115 53/118/116 40/119/117
f 40/119/117 53/118/116 52/120/118
f 40/119/117 52/120/118 41/121/119
f 41/121/119 52/120/118 51/122/120
f 41/121/119 51/122/120 42/123/121
f 42/123/121 51/122/120 50/124/122
f 42/123/121 50/124/122 43/125/123
f 43/125/123 50/124/122 49/126/124
f 43/125/123 49/126/124 44/127/125
f 44/127/125 49/126/124 48/128/126
f 44/127/125 48/128/126 45/129/127
f 45/129/127 48/128/126 47/130/128
f 45/129/127 47/130/128 46/131/129
f 56/112/110 72/111/109 57/132/130
f 57/132/130 72/111/109 71/133/131
f 57/132/130 71/133/131 58/134/132
f 58/134/132 71/133/131 70/135/133
f 58/134/132 70/135/133 59/136/134
f 59/136/134 70/135/133 69/137/135
f 59/136/134 69/137/135 60/138/136
f 60/138/136 69/137/135 68/139/137
f 60/138/136 68/139/137 61/140/138
f 61/140/138 68/139/137 67/141/139
f 61/140/138 67/141/139 62/142/140
f 62/142/140 67/141/139 66/143/141
f 62/142/140 66/143/141 63/144/142
f 63/144/142 66/143/141 65/145/143
f 63/144/142 65/145/143 64/146/144
# 72 vertices
# 146 texture params
# 144 normals
# 140 facets

# 1 groups
