# WaveFront *.obj file (generated by Autodesk ATF)

mtllib paint_can v1.mtl

g Body1

v -0.033337500000000006 -0.0 0.200025
v -0.03250166 0.00741829 0.200025
v -0.030036049999999998 0.014464600000000001 0.200025
v -0.026064310000000004 0.02078559 0.200025
v -0.02078559 0.026064310000000004 0.200025
v -0.014464600000000001 0.030036049999999998 0.200025
v -0.00741829 0.03250166 0.200025
v 0.0 0.033337500000000006 0.200025
v 0.00741829 0.03250166 0.200025
v 0.014464600000000001 0.030036049999999998 0.200025
v 0.02078559 0.026064310000000004 0.200025
v 0.026064310000000004 0.02078559 0.200025
v 0.030036049999999998 0.014464600000000001 0.200025
v 0.03250166 0.00741829 0.200025
v 0.033337500000000006 0.0 0.200025
v 0.03250166 -0.00741829 0.200025
v 0.030036049999999998 -0.014464600000000001 0.200025
v 0.026064310000000004 -0.02078559 0.200025
v 0.02078559 -0.026064310000000004 0.200025
v 0.014464600000000001 -0.030036049999999998 0.200025
v 0.00741829 -0.03250166 0.200025
v 0.0 -0.033337500000000006 0.200025
v -0.00741829 -0.03250166 0.200025
v -0.014464600000000001 -0.030036049999999998 0.200025
v -0.02078559 -0.026064310000000004 0.200025
v -0.026064310000000004 -0.02078559 0.200025
v -0.030036049999999998 -0.014464600000000001 0.200025
v -0.03250166 -0.00741829 0.200025
v -0.033337500000000006 -0.0 0.0
v -0.03250166 -0.00741829 0.0
v -0.030036049999999998 -0.014464600000000001 0.0
v -0.026064310000000004 -0.02078559 0.0
v -0.02078559 -0.026064310000000004 0.0
v -0.014464600000000001 -0.030036049999999998 0.0
v -0.00741829 -0.03250166 0.0
v 0.0 -0.033337500000000006 0.0
v 0.00741829 -0.03250166 0.0
v 0.014464600000000001 -0.030036049999999998 0.0
v 0.02078559 -0.026064310000000004 0.0
v 0.026064310000000004 -0.02078559 0.0
v 0.030036049999999998 -0.014464600000000001 0.0
v 0.03250166 -0.00741829 0.0
v 0.033337500000000006 0.0 0.0
v 0.03250166 0.00741829 0.0
v 0.030036049999999998 0.014464600000000001 0.0
v 0.026064310000000004 0.02078559 0.0
v 0.02078559 0.026064310000000004 0.0
v 0.014464600000000001 0.030036049999999998 0.0
v 0.00741829 0.03250166 0.0
v 0.0 0.033337500000000006 0.0
v -0.00741829 0.03250166 0.0
v -0.014464600000000001 0.030036049999999998 0.0
v -0.02078559 0.026064310000000004 0.0
v -0.026064310000000004 0.02078559 0.0
v -0.030036049999999998 0.014464600000000001 0.0
v -0.03250166 0.00741829 0.0
v -0.033337500000000006 -0.0 0.1000125
v -0.03250166 0.00741829 0.1000125
v -0.030036049999999998 0.014464600000000001 0.1000125
v -0.026064310000000004 0.02078559 0.1000125
v -0.02078559 0.026064310000000004 0.1000125
v -0.014464600000000001 0.030036049999999998 0.1000125
v -0.00741829 0.03250166 0.1000125
v 0.0 0.033337500000000006 0.1000125
v 0.00741829 0.03250166 0.1000125
v 0.014464600000000001 0.030036049999999998 0.1000125
v 0.02078559 0.026064310000000004 0.1000125
v 0.026064310000000004 0.02078559 0.1000125
v 0.030036049999999998 0.014464600000000001 0.1000125
v 0.03250166 0.00741829 0.1000125
v 0.033337500000000006 0.0 0.1000125
v 0.03250166 -0.00741829 0.1000125
v 0.030036049999999998 -0.014464600000000001 0.1000125
v 0.026064310000000004 -0.02078559 0.1000125
v 0.02078559 -0.026064310000000004 0.1000125
v 0.014464600000000001 -0.030036049999999998 0.1000125
v 0.00741829 -0.03250166 0.1000125
v 0.0 -0.033337500000000006 0.1000125
v -0.00741829 -0.03250166 0.1000125
v -0.014464600000000001 -0.030036049999999998 0.1000125
v -0.02078559 -0.026064310000000004 0.1000125
v -0.026064310000000004 -0.02078559 0.1000125
v -0.030036049999999998 -0.014464600000000001 0.1000125
v -0.03250166 -0.00741829 0.1000125
vt -0.200025 0.09725193000000001 0.0
vt -0.1000125 0.09725193000000001 0.0
vt -0.200025 0.10473285 0.0
vt -0.1000125 0.10473285 0.0
vt -0.200025 -0.10473285 0.0
vt -0.1000125 -0.10473285 0.0
vt -0.200025 -0.09725193000000001 0.0
vt -0.1000125 -0.09725193000000001 0.0
vt -0.200025 -0.08977101 0.0
vt -0.1000125 -0.08977101 0.0
vt -0.200025 -0.08229009 0.0
vt -0.1000125 -0.08229009 0.0
vt -0.200025 -0.07480918 0.0
vt -0.1000125 -0.07480918 0.0
vt -0.200025 -0.06732826 0.0
vt -0.1000125 -0.06732826 0.0
vt -0.200025 -0.059847340000000006 0.0
vt -0.1000125 -0.059847340000000006 0.0
vt -0.200025 -0.05236642 0.0
vt -0.1000125 -0.05236642 0.0
vt -0.200025 -0.04488551 0.0
vt -0.1000125 -0.04488551 0.0
vt -0.200025 -0.03740459 0.0
vt -0.1000125 -0.03740459 0.0
vt -0.200025 -0.029923670000000003 0.0
vt -0.1000125 -0.029923670000000003 0.0
vt -0.200025 -0.02244275 0.0
vt -0.1000125 -0.02244275 0.0
vt -0.200025 -0.01496184 0.0
vt -0.1000125 -0.01496184 0.0
vt -0.200025 -0.00748092 0.0
vt -0.1000125 -0.00748092 0.0
vt -0.200025 0.0 0.0
vt -0.1000125 0.0 0.0
vt -0.200025 0.00748092 0.0
vt -0.1000125 0.00748092 0.0
vt -0.200025 0.01496184 0.0
vt -0.1000125 0.01496184 0.0
vt -0.200025 0.02244275 0.0
vt -0.1000125 0.02244275 0.0
vt -0.200025 0.029923670000000003 0.0
vt -0.1000125 0.029923670000000003 0.0
vt -0.200025 0.03740459 0.0
vt -0.1000125 0.03740459 0.0
vt -0.200025 0.04488551 0.0
vt -0.1000125 0.04488551 0.0
vt -0.200025 0.05236642 0.0
vt -0.1000125 0.05236642 0.0
vt -0.200025 0.059847340000000006 0.0
vt -0.1000125 0.059847340000000006 0.0
vt -0.200025 0.06732826 0.0
vt -0.1000125 0.06732826 0.0
vt -0.200025 0.07480918 0.0
vt -0.1000125 0.07480918 0.0
vt -0.200025 0.08229009 0.0
vt -0.1000125 0.08229009 0.0
vt -0.200025 0.08977101 0.0
vt -0.1000125 0.08977101 0.0
vt -0.0 -0.09725193000000001 0.0
vt -0.0 -0.10473285 0.0
vt -0.0 0.10473285 0.0
vt -0.0 0.09725193000000001 0.0
vt -0.0 0.08977101 0.0
vt -0.0 0.08229009 0.0
vt -0.0 0.07480918 0.0
vt -0.0 0.06732826 0.0
vt -0.0 0.059847340000000006 0.0
vt -0.0 0.05236642 0.0
vt -0.0 0.04488551 0.0
vt -0.0 0.03740459 0.0
vt -0.0 0.029923670000000003 0.0
vt -0.0 0.02244275 0.0
vt -0.0 0.01496184 0.0
vt -0.0 0.00748092 0.0
vt -0.0 0.0 0.0
vt -0.0 -0.00748092 0.0
vt -0.0 -0.01496184 0.0
vt -0.0 -0.02244275 0.0
vt -0.0 -0.029923670000000003 0.0
vt -0.0 -0.03740459 0.0
vt -0.0 -0.04488551 0.0
vt -0.0 -0.05236642 0.0
vt -0.0 -0.059847340000000006 0.0
vt -0.0 -0.06732826 0.0
vt -0.0 -0.07480918 0.0
vt -0.0 -0.08229009 0.0
vt -0.0 -0.08977101 0.0
vt -0.03250166 -0.00741829 0.0
vt 0.03250166 -0.00741829 0.0
vt -0.033337500000000006 -0.0 0.0
vt 0.033337500000000006 0.0 0.0
vt -0.03250166 0.00741829 0.0
vt 0.03250166 0.00741829 0.0
vt -0.030036049999999998 0.014464600000000001 0.0
vt 0.030036049999999998 0.014464600000000001 0.0
vt -0.026064310000000004 0.02078559 0.0
vt 0.026064310000000004 0.02078559 0.0
vt -0.02078559 0.026064310000000004 0.0
vt 0.02078559 0.026064310000000004 0.0
vt -0.014464600000000001 0.030036049999999998 0.0
vt 0.014464600000000001 0.030036049999999998 0.0
vt -0.00741829 0.03250166 0.0
vt 0.00741829 0.03250166 0.0
vt 0.0 0.033337500000000006 0.0
vt 0.030036049999999998 -0.014464600000000001 0.0
vt -0.030036049999999998 -0.014464600000000001 0.0
vt 0.026064310000000004 -0.02078559 0.0
vt -0.026064310000000004 -0.02078559 0.0
vt 0.02078559 -0.026064310000000004 0.0
vt -0.02078559 -0.026064310000000004 0.0
vt 0.014464600000000001 -0.030036049999999998 0.0
vt -0.014464600000000001 -0.030036049999999998 0.0
vt 0.00741829 -0.03250166 0.0
vt -0.00741829 -0.03250166 0.0
vt 0.0 -0.033337500000000006 0.0
vt 0.03250166 0.00741829 0.0
vt -0.03250166 0.00741829 0.0
vt 0.033337500000000006 -0.0 0.0
vt -0.033337500000000006 0.0 0.0
vt 0.03250166 -0.00741829 0.0
vt -0.03250166 -0.00741829 0.0
vt 0.030036049999999998 -0.014464600000000001 0.0
vt -0.030036049999999998 -0.014464600000000001 0.0
vt 0.026064310000000004 -0.02078559 0.0
vt -0.026064310000000004 -0.02078559 0.0
vt 0.02078559 -0.026064310000000004 0.0
vt -0.02078559 -0.026064310000000004 0.0
vt 0.014464600000000001 -0.030036049999999998 0.0
vt -0.014464600000000001 -0.030036049999999998 0.0
vt 0.00741829 -0.03250166 0.0
vt -0.00741829 -0.03250166 0.0
vt -0.0 -0.033337500000000006 0.0
vt -0.030036049999999998 0.014464600000000001 0.0
vt 0.030036049999999998 0.014464600000000001 0.0
vt -0.026064310000000004 0.02078559 0.0
vt 0.026064310000000004 0.02078559 0.0
vt -0.02078559 0.026064310000000004 0.0
vt 0.02078559 0.026064310000000004 0.0
vt -0.014464600000000001 0.030036049999999998 0.0
vt 0.014464600000000001 0.030036049999999998 0.0
vt -0.00741829 0.03250166 0.0
vt 0.00741829 0.03250166 0.0
vt -0.0 0.033337500000000006 0.0
vn -0.00974928 0.00222521 -0.0
vn -0.00974928 0.00222521 -0.0
vn -0.01 0.0 -0.0
vn -0.01 0.0 -0.0
vn -0.00974928 -0.00222521 0.0
vn -0.00974928 -0.00222521 0.0
vn -0.00900969 -0.00433884 0.0
vn -0.00900969 -0.00433884 0.0
vn -0.00781831 -0.0062349 0.0
vn -0.00781831 -0.0062349 0.0
vn -0.0062349 -0.00781831 0.0
vn -0.0062349 -0.00781831 0.0
vn -0.00433884 -0.00900969 0.0
vn -0.00433884 -0.00900969 0.0
vn -0.00222521 -0.00974928 0.0
vn -0.00222521 -0.00974928 0.0
vn 0.0 -0.01 -0.0
vn 0.0 -0.01 -0.0
vn 0.00222521 -0.00974928 -0.0
vn 0.00222521 -0.00974928 -0.0
vn 0.00433884 -0.00900969 -0.0
vn 0.00433884 -0.00900969 -0.0
vn 0.0062349 -0.00781831 -0.0
vn 0.0062349 -0.00781831 -0.0
vn 0.00781831 -0.0062349 -0.0
vn 0.00781831 -0.0062349 -0.0
vn 0.00900969 -0.00433884 -0.0
vn 0.00900969 -0.00433884 -0.0
vn 0.00974928 -0.00222521 -0.0
vn 0.00974928 -0.00222521 -0.0
vn 0.01 -0.0 -0.0
vn 0.01 -0.0 -0.0
vn 0.00974928 0.00222521 -0.0
vn 0.00974928 0.00222521 -0.0
vn 0.00900969 0.00433884 -0.0
vn 0.00900969 0.00433884 -0.0
vn 0.00781831 0.0062349 -0.0
vn 0.00781831 0.0062349 -0.0
vn 0.0062349 0.00781831 -0.0
vn 0.0062349 0.00781831 -0.0
vn 0.00433884 0.00900969 -0.0
vn 0.00433884 0.00900969 -0.0
vn 0.00222521 0.00974928 -0.0
vn 0.00222521 0.00974928 -0.0
vn 0.0 0.01 -0.0
vn 0.0 0.01 -0.0
vn -0.00222521 0.00974928 -0.0
vn -0.00222521 0.00974928 -0.0
vn -0.00433884 0.00900969 -0.0
vn -0.00433884 0.00900969 -0.0
vn -0.0062349 0.00781831 -0.0
vn -0.0062349 0.00781831 -0.0
vn -0.00781831 0.0062349 -0.0
vn -0.00781831 0.0062349 -0.0
vn -0.00900969 0.00433884 -0.0
vn -0.00900969 0.00433884 -0.0
vn -0.00974928 -0.00222521 0.0
vn -0.01 -0.0 0.0
vn -0.00974928 0.00222521 -0.0
vn -0.00900969 0.00433884 -0.0
vn -0.00781831 0.0062349 -0.0
vn -0.0062349 0.00781831 -0.0
vn -0.00433884 0.00900969 -0.0
vn -0.00222521 0.00974928 -0.0
vn 0.0 0.01 -0.0
vn 0.00222521 0.00974928 -0.0
vn 0.00433884 0.00900969 -0.0
vn 0.0062349 0.00781831 -0.0
vn 0.00781831 0.0062349 -0.0
vn 0.00900969 0.00433884 -0.0
vn 0.00974928 0.00222521 -0.0
vn 0.01 -0.0 -0.0
vn 0.00974928 -0.00222521 -0.0
vn 0.00900969 -0.00433884 -0.0
vn 0.00781831 -0.0062349 -0.0
vn 0.0062349 -0.00781831 -0.0
vn 0.00433884 -0.00900969 -0.0
vn 0.00222521 -0.00974928 -0.0
vn 0.0 -0.01 -0.0
vn -0.00222521 -0.00974928 0.0
vn -0.00433884 -0.00900969 0.0
vn -0.0062349 -0.00781831 0.0
vn -0.00781831 -0.0062349 0.0
vn -0.00900969 -0.00433884 0.0
vn 0.0 0.0 0.01
vn 0.0 0.0 0.01
vn 0.0 0.0 0.01
vn 0.0 0.0 0.01
vn 0.0 0.0 0.01
vn 0.0 0.0 0.01
vn 0.0 0.0 0.01
vn 0.0 0.0 0.01
vn 0.0 0.0 0.01
vn 0.0 0.0 0.01
vn 0.0 0.0 0.01
vn 0.0 0.0 0.01
vn 0.0 0.0 0.01
vn 0.0 0.0 0.01
vn 0.0 0.0 0.01
vn 0.0 0.0 0.01
vn 0.0 0.0 0.01
vn 0.0 0.0 0.01
vn 0.0 0.0 0.01
vn 0.0 0.0 0.01
vn 0.0 0.0 0.01
vn 0.0 0.0 0.01
vn 0.0 0.0 0.01
vn 0.0 0.0 0.01
vn 0.0 0.0 0.01
vn 0.0 0.0 0.01
vn 0.0 0.0 0.01
vn 0.0 0.0 0.01
vn -0.0 -0.0 -0.01
vn -0.0 -0.0 -0.01
vn -0.0 -0.0 -0.01
vn -0.0 -0.0 -0.01
vn -0.0 -0.0 -0.01
vn -0.0 -0.0 -0.01
vn -0.0 -0.0 -0.01
vn -0.0 -0.0 -0.01
vn -0.0 -0.0 -0.01
vn -0.0 -0.0 -0.01
vn -0.0 -0.0 -0.01
vn -0.0 -0.0 -0.01
vn -0.0 -0.0 -0.01
vn -0.0 -0.0 -0.01
vn -0.0 -0.0 -0.01
vn -0.0 -0.0 -0.01
vn -0.0 -0.0 -0.01
vn -0.0 -0.0 -0.01
vn -0.0 -0.0 -0.01
vn -0.0 -0.0 -0.01
vn -0.0 -0.0 -0.01
vn -0.0 -0.0 -0.01
vn -0.0 -0.0 -0.01
vn -0.0 -0.0 -0.01
vn -0.0 -0.0 -0.01
vn -0.0 -0.0 -0.01
vn -0.0 -0.0 -0.01
vn -0.0 -0.0 -0.01
usemtl Steel_-_Satin
f 2/1/1 58/2/2 1/3/3
f 1/3/3 58/2/2 57/4/4
f 1/5/3 57/6/4 28/7/5
f 28/7/5 57/6/4 84/8/6
f 28/7/5 84/8/6 27/9/7
f 27/9/7 84/8/6 83/10/8
f 27/9/7 83/10/8 26/11/9
f 26/11/9 83/10/8 82/12/10
f 26/11/9 82/12/10 25/13/11
f 25/13/11 82/12/10 81/14/12
f 25/13/11 81/14/12 24/15/13
f 24/15/13 81/14/12 80/16/14
f 24/15/13 80/16/14 23/17/15
f 23/17/15 80/16/14 79/18/16
f 23/17/15 79/18/16 22/19/17
f 22/19/17 79/18/16 78/20/18
f 22/19/17 78/20/18 21/21/19
f 21/21/19 78/20/18 77/22/20
f 21/21/19 77/22/20 20/23/21
f 20/23/21 77/22/20 76/24/22
f 20/23/21 76/24/22 19/25/23
f 19/25/23 76/24/22 75/26/24
f 19/25/23 75/26/24 18/27/25
f 18/27/25 75/26/24 74/28/26
f 18/27/25 74/28/26 17/29/27
f 17/29/27 74/28/26 73/30/28
f 17/29/27 73/30/28 16/31/29
f 16/31/29 73/30/28 72/32/30
f 16/31/29 72/32/30 15/33/31
f 15/33/31 72/32/30 71/34/32
f 15/33/31 71/34/32 14/35/33
f 14/35/33 71/34/32 70/36/34
f 14/35/33 70/36/34 13/37/35
f 13/37/35 70/36/34 69/38/36
f 13/37/35 69/38/36 12/39/37
f 12/39/37 69/38/36 68/40/38
f 12/39/37 68/40/38 11/41/39
f 11/41/39 68/40/38 67/42/40
f 11/41/39 67/42/40 10/43/41
f 10/43/41 67/42/40 66/44/42
f 10/43/41 66/44/42 9/45/43
f 9/45/43 66/44/42 65/46/44
f 9/45/43 65/46/44 8/47/45
f 8/47/45 65/46/44 64/48/46
f 8/47/45 64/48/46 7/49/47
f 7/49/47 64/48/46 63/50/48
f 7/49/47 63/50/48 6/51/49
f 6/51/49 63/50/48 62/52/50
f 6/51/49 62/52/50 5/53/51
f 5/53/51 62/52/50 61/54/52
f 5/53/51 61/54/52 4/55/53
f 4/55/53 61/54/52 60/56/54
f 4/55/53 60/56/54 3/57/55
f 3/57/55 60/56/54 59/58/56
f 3/57/55 59/58/56 2/1/1
f 2/1/1 59/58/56 58/2/2
f 30/59/57 84/8/6 29/60/58
f 29/60/58 84/8/6 57/6/4
f 29/61/58 57/4/4 56/62/59
f 56/62/59 57/4/4 58/2/2
f 56/62/59 58/2/2 55/63/60
f 55/63/60 58/2/2 59/58/56
f 55/63/60 59/58/56 54/64/61
f 54/64/61 59/58/56 60/56/54
f 54/64/61 60/56/54 53/65/62
f 53/65/62 60/56/54 61/54/52
f 53/65/62 61/54/52 52/66/63
f 52/66/63 61/54/52 62/52/50
f 52/66/63 62/52/50 51/67/64
f 51/67/64 62/52/50 63/50/48
f 51/67/64 63/50/48 50/68/65
f 50/68/65 63/50/48 64/48/46
f 50/68/65 64/48/46 49/69/66
f 49/69/66 64/48/46 65/46/44
f 49/69/66 65/46/44 48/70/67
f 48/70/67 65/46/44 66/44/42
f 48/70/67 66/44/42 47/71/68
f 47/71/68 66/44/42 67/42/40
f 47/71/68 67/42/40 46/72/69
f 46/72/69 67/42/40 68/40/38
f 46/72/69 68/40/38 45/73/70
f 45/73/70 68/40/38 69/38/36
f 45/73/70 69/38/36 44/74/71
f 44/74/71 69/38/36 70/36/34
f 44/74/71 70/36/34 43/75/72
f 43/75/72 70/36/34 71/34/32
f 43/75/72 71/34/32 42/76/73
f 42/76/73 71/34/32 72/32/30
f 42/76/73 72/32/30 41/77/74
f 41/77/74 72/32/30 73/30/28
f 41/77/74 73/30/28 40/78/75
f 40/78/75 73/30/28 74/28/26
f 40/78/75 74/28/26 39/79/76
f 39/79/76 74/28/26 75/26/24
f 39/79/76 75/26/24 38/80/77
f 38/80/77 75/26/24 76/24/22
f 38/80/77 76/24/22 37/81/78
f 37/81/78 76/24/22 77/22/20
f 37/81/78 77/22/20 36/82/79
f 36/82/79 77/22/20 78/20/18
f 36/82/79 78/20/18 35/83/80
f 35/83/80 78/20/18 79/18/16
f 35/83/80 79/18/16 34/84/81
f 34/84/81 79/18/16 80/16/14
f 34/84/81 80/16/14 33/85/82
f 33/85/82 80/16/14 81/14/12
f 33/85/82 81/14/12 32/86/83
f 32/86/83 81/14/12 82/12/10
f 32/86/83 82/12/10 31/87/84
f 31/87/84 82/12/10 83/10/8
f 31/87/84 83/10/8 30/59/57
f 30/59/57 83/10/8 84/8/6
f 28/88/85 16/89/86 1/90/87
f 1/90/87 16/89/86 15/91/88
f 1/90/87 15/91/88 2/92/89
f 2/92/89 15/91/88 14/93/90
f 2/92/89 14/93/90 3/94/91
f 3/94/91 14/93/90 13/95/92
f 3/94/91 13/95/92 4/96/93
f 4/96/93 13/95/92 12/97/94
f 4/96/93 12/97/94 5/98/95
f 5/98/95 12/97/94 11/99/96
f 5/98/95 11/99/96 6/100/97
f 6/100/97 11/99/96 10/101/98
f 6/100/97 10/101/98 7/102/99
f 7/102/99 10/101/98 9/103/100
f 7/102/99 9/103/100 8/104/101
f 16/89/86 28/88/85 17/105/102
f 17/105/102 28/88/85 27/106/103
f 17/105/102 27/106/103 18/107/104
f 18/107/104 27/106/103 26/108/105
f 18/107/104 26/108/105 19/109/106
f 19/109/106 26/108/105 25/110/107
f 19/109/106 25/110/107 20/111/108
f 20/111/108 25/110/107 24/112/109
f 20/111/108 24/112/109 21/113/110
f 21/113/110 24/112/109 23/114/111
f 21/113/110 23/114/111 22/115/112
f 56/116/113 44/117/114 29/118/115
f 29/118/115 44/117/114 43/119/116
f 29/118/115 43/119/116 30/120/117
f 30/120/117 43/119/116 42/121/118
f 30/120/117 42/121/118 31/122/119
f 31/122/119 42/121/118 41/123/120
f 31/122/119 41/123/120 32/124/121
f 32/124/121 41/123/120 40/125/122
f 32/124/121 40/125/122 33/126/123
f 33/126/123 40/125/122 39/127/124
f 33/126/123 39/127/124 34/128/125
f 34/128/125 39/127/124 38/129/126
f 34/128/125 38/129/126 35/130/127
f 35/130/127 38/129/126 37/131/128
f 35/130/127 37/131/128 36/132/129
f 44/117/114 56/116/113 45/133/130
f 45/133/130 56/116/113 55/134/131
f 45/133/130 55/134/131 46/135/132
f 46/135/132 55/134/131 54/136/133
f 46/135/132 54/136/133 47/137/134
f 47/137/134 54/136/133 53/138/135
f 47/137/134 53/138/135 48/139/136
f 48/139/136 53/138/135 52/140/137
f 48/139/136 52/140/137 49/141/138
f 49/141/138 52/140/137 51/142/139
f 49/141/138 51/142/139 50/143/140
# 84 vertices
# 143 texture params
# 140 normals
# 164 facets

# 1 groups
