# WaveFront *.obj file (generated by Autodesk ATF)

mtllib mouse_box v2.mtl

g Body1

v 0.15 0.03 0.0
v 0.0 0.03 0.0
v -0.15 0.03 0.0
v -0.15 0.03 0.06985000000000001
v -0.15 0.03 0.24
v 0.0 0.03 0.24
v 0.15 0.03 0.24
v 0.15 0.03 0.06985000000000001
v 0.0 0.03 0.06985000000000001
v 0.15 -0.03 0.0
v 0.15 -0.03 0.24
v 0.15 -0.03 0.06985000000000001
v -0.15 -0.03 0.0
v 0.0 -0.03 0.0
v 0.0 -0.03 0.24
v -0.15 -0.03 0.24
v -0.15 -0.03 0.06985000000000001
v 0.0 -0.03 0.06985000000000001
vt 0.0 0.0 0.0
vt 0.15 0.0 0.0
vt 0.0 0.06985000000000001 0.0
vt 0.15 0.06985000000000001 0.0
vt 0.0 0.24 0.0
vt 0.15 0.24 0.0
vt 0.21272500000000003 0.06985000000000001 0.0
vt 0.21272500000000003 0.24 0.0
vt 0.21272500000000003 0.0 0.0
vt 0.0 0.0 0.0
vt 0.058737500000000005 0.0 0.0
vt 0.0 0.06985000000000001 0.0
vt 0.058737500000000005 0.06985000000000001 0.0
vt 0.0 0.24 0.0
vt 0.058737500000000005 0.24 0.0
vt 0.0 0.0 0.0
vt 0.15 0.0 0.0
vt 0.0 0.06985000000000001 0.0
vt 0.15 0.06985000000000001 0.0
vt 0.0 0.24 0.0
vt 0.15 0.24 0.0
vt 0.21272500000000003 0.06985000000000001 0.0
vt 0.21272500000000003 0.24 0.0
vt 0.21272500000000003 0.0 0.0
vt 0.0 0.0 0.0
vt 0.058737500000000005 0.0 0.0
vt 0.0 0.06985000000000001 0.0
vt 0.058737500000000005 0.06985000000000001 0.0
vt 0.0 0.24 0.0
vt 0.058737500000000005 0.24 0.0
vt -0.15 -0.03 0.0
vt 0.0 -0.03 0.0
vt -0.15 0.03 0.0
vt 0.0 0.03 0.0
vt 0.15 -0.03 0.0
vt 0.15 0.03 0.0
vt 0.15 0.03 0.0
vt -0.0 0.03 0.0
vt 0.15 -0.03 0.0
vt -0.0 -0.03 0.0
vt -0.15 0.03 0.0
vt -0.15 -0.03 0.0
vn 0.0 0.01 0.0
vn 0.0 0.01 0.0
vn 0.0 0.01 0.0
vn 0.0 0.01 0.0
vn 0.0 0.01 0.0
vn 0.0 0.01 0.0
vn 0.0 0.01 0.0
vn 0.0 0.01 0.0
vn 0.0 0.01 0.0
vn 0.01 0.0 0.0
vn 0.01 0.0 0.0
vn 0.01 0.0 0.0
vn 0.01 0.0 0.0
vn 0.01 0.0 0.0
vn 0.01 0.0 0.0
vn 0.0 -0.01 0.0
vn 0.0 -0.01 0.0
vn 0.0 -0.01 0.0
vn 0.0 -0.01 0.0
vn 0.0 -0.01 0.0
vn 0.0 -0.01 0.0
vn 0.0 -0.01 0.0
vn 0.0 -0.01 0.0
vn 0.0 -0.01 0.0
vn -0.01 0.0 0.0
vn -0.01 0.0 0.0
vn -0.01 0.0 0.0
vn -0.01 0.0 0.0
vn -0.01 0.0 0.0
vn -0.01 0.0 0.0
vn 0.0 0.0 0.01
vn 0.0 0.0 0.01
vn 0.0 0.0 0.01
vn 0.0 0.0 0.01
vn 0.0 0.0 0.01
vn 0.0 0.0 0.01
vn -0.0 -0.0 -0.01
vn -0.0 -0.0 -0.01
vn -0.0 -0.0 -0.01
vn -0.0 -0.0 -0.01
vn -0.0 -0.0 -0.01
vn -0.0 -0.0 -0.01
usemtl Steel_-_Satin
f 1/1/1 2/2/2 8/3/3
f 8/3/3 2/2/2 9/4/4
f 8/3/3 9/4/4 7/5/5
f 7/5/5 9/4/4 6/6/6
f 6/6/6 9/4/4 4/7/7
f 6/6/6 4/7/7 5/8/8
f 2/2/2 3/9/9 9/4/4
f 9/4/4 3/9/9 4/7/7
f 10/10/10 1/11/11 12/12/12
f 12/12/12 1/11/11 8/13/13
f 12/12/12 8/13/13 11/14/14
f 11/14/14 8/13/13 7/15/15
f 13/16/16 14/17/17 17/18/18
f 17/18/18 14/17/17 18/19/19
f 17/18/18 18/19/19 16/20/20
f 16/20/20 18/19/19 15/21/21
f 15/21/21 18/19/19 12/22/22
f 15/21/21 12/22/22 11/23/23
f 14/17/17 10/24/24 18/19/19
f 18/19/19 10/24/24 12/22/22
f 3/25/25 13/26/26 4/27/27
f 4/27/27 13/26/26 17/28/28
f 4/27/27 17/28/28 5/29/29
f 5/29/29 17/28/28 16/30/30
f 16/31/31 15/32/32 5/33/33
f 5/33/33 15/32/32 6/34/34
f 6/34/34 15/32/32 11/35/35
f 6/34/34 11/35/35 7/36/36
f 3/37/37 2/38/38 13/39/39
f 13/39/39 2/38/38 14/40/40
f 14/40/40 2/38/38 1/41/41
f 14/40/40 1/41/41 10/42/42
# 18 vertices
# 42 texture params
# 42 normals
# 32 facets

# 1 groups
